<svg version="1.1" id="Layer_1" xmlns="http://www.w3.org/2000/svg" xmlns:xlink="http://www.w3.org/1999/xlink" x="0px" y="0px"
	 width="100%" viewBox="0 0 60 60" enable-background="new 0 0 60 60" xml:space="preserve">
<path fill="#FFFFFF" opacity="1.000000" stroke="none" 
	d="
M39.000290,61.000000 
	C26.000229,61.000000 13.500231,61.000000 1.000175,61.000000 
	C1.000117,41.000084 1.000117,21.000166 1.000059,1.000186 
	C20.999912,1.000124 40.999825,1.000124 60.999802,1.000062 
	C60.999870,20.999907 60.999870,40.999813 60.999935,60.999863 
	C53.833450,61.000000 46.666901,61.000000 39.000290,61.000000 
M52.898689,24.355785 
	C52.292652,23.877069 51.686611,23.398355 50.765068,22.232935 
	C46.458035,21.636789 42.151001,21.040642 37.843964,20.444496 
	C36.932274,20.307325 36.614700,18.368246 35.497448,17.182926 
	C33.752106,15.331245 30.339268,13.969236 35.687576,12.519080 
	C35.785164,12.492619 35.768253,10.547144 35.266956,10.099937 
	C33.960640,8.934583 32.354881,8.104884 30.184256,6.697665 
	C31.996151,9.619643 21.671738,10.603094 29.927923,13.920185 
	C28.543066,15.912706 26.925934,17.610191 26.076778,19.630470 
	C25.146948,21.842691 24.460733,22.051638 22.163139,21.164513 
	C18.256989,19.656313 14.230217,19.834791 9.948680,23.805004 
	C12.024849,23.451689 13.003790,23.285097 13.982120,23.712090 
	C13.981933,24.107813 13.981745,24.503536 13.469398,25.307825 
	C11.998425,26.989544 10.527452,28.671263 9.019230,31.171366 
	C9.106872,31.877281 9.194514,32.583199 9.282157,33.289112 
	C9.515508,33.242523 9.748858,33.195934 9.982208,33.149345 
	C9.712605,32.206936 9.443003,31.264524 10.113809,29.835716 
	C10.733407,31.133617 11.851468,32.419891 11.882066,33.731533 
	C11.987000,38.229668 14.328320,39.381813 18.334360,38.888191 
	C19.046288,38.800468 19.871193,39.629642 19.678331,40.255013 
	C18.128563,40.641567 16.578794,41.028126 14.876533,41.452717 
	C15.009423,43.045288 15.132746,44.523190 14.981218,46.838573 
	C15.258246,47.937744 15.535275,49.036919 15.658834,50.419121 
	C15.687300,50.650299 15.796157,50.834019 16.198132,51.717007 
	C19.738680,52.616352 23.258696,53.608852 26.824242,54.394798 
	C33.353775,55.834091 39.399872,54.438137 45.626076,50.767727 
	C45.752151,50.181393 45.878231,49.595055 46.038425,48.261654 
	C46.022850,47.514133 46.007271,46.766617 46.115654,45.794819 
	C46.142094,45.495697 46.030308,45.293018 45.880508,44.342354 
	C45.940090,43.213844 45.999668,42.085331 46.069767,40.971977 
	C46.069767,40.971977 46.080769,40.947128 46.646965,40.739044 
	C46.777534,40.180641 46.908108,39.622234 47.038109,39.025196 
	C47.038109,39.025196 47.076580,39.028748 47.752346,38.953793 
	C47.514965,38.305477 47.277580,37.657158 47.490032,36.371166 
	C49.205238,33.804394 50.920444,31.237621 52.838291,29.394442 
	C53.211113,29.853989 53.583931,30.313534 53.956753,30.773081 
	C54.217575,30.452194 54.478394,30.131308 54.739212,29.810419 
	C54.085190,29.393915 53.431171,28.977409 52.368912,27.928513 
	C52.533596,27.739216 52.698277,27.549919 53.400951,27.869310 
	C53.291531,26.886889 53.182114,25.904467 52.898689,24.355785 
M9.715888,26.807013 
	C10.050358,25.981245 10.384829,25.155479 10.719300,24.329714 
	C10.323906,24.253187 9.603748,24.059687 9.582744,24.118006 
	C9.340264,24.791231 9.203678,25.502596 9.715888,26.807013 
M53.273884,33.124863 
	C53.033829,33.311123 52.793777,33.497387 52.553726,33.683651 
	C52.899544,33.633656 53.245361,33.583656 53.273884,33.124863 
z"/>
<path fill="#080808" opacity="1.000000" stroke="none" 
	d="
M9.056480,30.352983 
	C10.527452,28.671263 11.998425,26.989544 14.090321,25.096775 
	C22.901436,23.490015 30.419676,29.286383 29.702337,36.448952 
	C26.945850,36.894913 24.163599,37.229675 21.452999,37.868477 
	C20.949686,37.987091 20.734882,39.329933 20.428928,40.092274 
	C20.470934,40.076782 20.643929,40.035431 20.643929,40.035431 
	C19.871193,39.629642 19.046288,38.800468 18.334360,38.888191 
	C14.328320,39.381813 11.987000,38.229668 11.882066,33.731533 
	C11.851468,32.419891 10.733407,31.133617 9.618702,30.126328 
	C9.123594,30.416937 9.056480,30.352983 9.056480,30.352983 
z"/>
<path fill="#060606" opacity="1.000000" stroke="none" 
	d="
M13.982731,23.118505 
	C13.003790,23.285097 12.024849,23.451689 9.948680,23.805004 
	C14.230217,19.834791 18.256989,19.656313 22.163139,21.164513 
	C24.460733,22.051638 25.146948,21.842691 26.076778,19.630470 
	C26.925934,17.610191 28.543066,15.912706 29.927923,13.920185 
	C21.671738,10.603094 31.996151,9.619643 30.184256,6.697665 
	C32.354881,8.104884 33.960640,8.934583 35.266956,10.099937 
	C35.768253,10.547144 35.785164,12.492619 35.687576,12.519080 
	C30.339268,13.969236 33.752106,15.331245 35.497448,17.182926 
	C36.614700,18.368246 36.932274,20.307325 37.843964,20.444496 
	C42.151001,21.040642 46.458035,21.636789 50.736496,22.773739 
	C50.584316,23.446741 50.460705,23.578943 49.988045,23.584774 
	C42.910034,21.086292 37.898449,22.732048 32.598969,29.130558 
	C31.114923,28.735224 29.766821,28.367323 28.781870,27.557653 
	C24.444529,23.992180 20.066738,20.778639 13.982731,23.118505 
z"/>
<path fill="#080808" opacity="1.000000" stroke="none" 
	d="
M52.862957,27.360622 
	C52.698277,27.549919 52.533596,27.739216 52.565514,28.308050 
	C52.762115,28.687588 52.635647,28.670847 52.635647,28.670849 
	C50.920444,31.237621 49.205238,33.804394 47.292984,36.701523 
	C47.095936,37.031876 47.032211,37.001438 46.578331,37.166145 
	C41.599609,37.330849 37.074768,37.330849 31.573570,37.330849 
	C32.642338,34.280823 33.361225,32.229282 34.385262,30.013796 
	C40.949306,23.493193 45.023693,22.811762 51.195446,27.524675 
	C51.972622,27.788439 52.517849,27.655745 52.995384,27.504208 
	C52.927689,27.485363 52.862957,27.360622 52.862957,27.360622 
z"/>
<path fill="#060606" opacity="1.000000" stroke="none" 
	d="
M45.038898,50.988335 
	C39.399872,54.438137 33.353775,55.834091 26.824242,54.394798 
	C23.258696,53.608852 19.738680,52.616352 16.480354,51.316490 
	C26.198244,46.943310 35.622879,47.282871 45.038898,50.988335 
z"/>
<path fill="#E0E0E0" opacity="1.000000" stroke="none" 
	d="
M34.080109,30.177742 
	C33.361225,32.229282 32.642338,34.280823 31.573570,37.330849 
	C37.074768,37.330849 41.599609,37.330849 46.578522,37.674042 
	C47.047256,38.354408 47.061916,38.691578 47.076580,39.028748 
	C47.076580,39.028748 47.038109,39.025196 46.777901,39.175056 
	C46.372047,39.865654 46.226406,40.406391 46.080769,40.947128 
	C46.080769,40.947128 46.069767,40.971977 45.645325,41.021111 
	C37.008747,39.050369 28.776876,37.539665 20.386925,40.107765 
	C20.734882,39.329933 20.949686,37.987091 21.452999,37.868477 
	C24.163599,37.229675 26.945850,36.894913 29.702337,36.448952 
	C30.419676,29.286383 22.901436,23.490015 14.346399,24.892492 
	C13.981745,24.503536 13.981933,24.107813 13.982426,23.415298 
	C20.066738,20.778639 24.444529,23.992180 28.781870,27.557653 
	C29.766821,28.367323 31.114923,28.735224 32.858078,29.266737 
	C33.640224,29.543919 33.860168,29.860830 34.080109,30.177742 
z"/>
<path fill="#161616" opacity="1.000000" stroke="none" 
	d="
M20.428928,40.092274 
	C28.776876,37.539665 37.008747,39.050369 45.640068,41.013531 
	C45.999668,42.085331 45.940090,43.213844 45.515358,44.409691 
	C36.861740,40.412601 28.286079,40.561073 19.662046,43.011890 
	C18.249846,43.413216 17.170860,44.987061 15.767423,46.014366 
	C15.596976,46.009739 15.256067,46.001091 15.256067,46.001091 
	C15.132746,44.523190 15.009423,43.045288 14.876533,41.452717 
	C16.578794,41.028126 18.128563,40.641567 20.161129,40.145222 
	C20.643929,40.035431 20.470934,40.076782 20.428928,40.092274 
z"/>
<path fill="#151515" opacity="1.000000" stroke="none" 
	d="
M15.118643,46.419830 
	C15.256067,46.001091 15.596976,46.009739 16.170517,46.037460 
	C19.581757,45.342308 22.448351,43.919201 25.251451,44.034874 
	C32.180359,44.320793 39.080181,45.311584 45.991692,46.019096 
	C46.007271,46.766617 46.022850,47.514133 45.641331,48.679863 
	C38.644928,45.764385 31.610138,45.250019 24.526888,46.556896 
	C21.504778,47.114483 18.710249,48.905540 15.812304,50.136089 
	C15.535275,49.036919 15.258246,47.937744 15.118643,46.419830 
z"/>
<path fill="#D7D7D7" opacity="1.000000" stroke="none" 
	d="
M15.735569,50.277603 
	C18.710249,48.905540 21.504778,47.114483 24.526888,46.556896 
	C31.610138,45.250019 38.644928,45.764385 45.624271,49.053394 
	C45.878231,49.595055 45.752151,50.181393 45.332489,50.878029 
	C35.622879,47.282871 26.198244,46.943310 16.373991,50.943123 
	C15.796157,50.834019 15.687300,50.650299 15.735569,50.277603 
z"/>
<path fill="#DBDBDB" opacity="1.000000" stroke="none" 
	d="
M46.053673,45.906960 
	C39.080181,45.311584 32.180359,44.320793 25.251451,44.034874 
	C22.448351,43.919201 19.581757,45.342308 16.340963,46.042084 
	C17.170860,44.987061 18.249846,43.413216 19.662046,43.011890 
	C28.286079,40.561073 36.861740,40.412601 45.465248,44.831909 
	C46.030308,45.293018 46.142094,45.495697 46.053673,45.906960 
z"/>
<path fill="#DADADA" opacity="1.000000" stroke="none" 
	d="
M52.769630,28.624247 
	C53.431171,28.977409 54.085190,29.393915 54.739212,29.810419 
	C54.478394,30.131308 54.217575,30.452194 53.956753,30.773081 
	C53.583931,30.313534 53.211113,29.853989 52.736969,29.032644 
	C52.635647,28.670847 52.762115,28.687588 52.769630,28.624247 
z"/>
<path fill="#DADADA" opacity="1.000000" stroke="none" 
	d="
M47.414463,38.991272 
	C47.061916,38.691578 47.047256,38.354408 47.032402,37.509338 
	C47.032211,37.001438 47.095936,37.031876 47.068069,37.020359 
	C47.277580,37.657158 47.514965,38.305477 47.414463,38.991272 
z"/>
<path fill="#060606" opacity="1.000000" stroke="none" 
	d="
M9.377422,26.505421 
	C9.203678,25.502596 9.340264,24.791231 9.582744,24.118006 
	C9.603748,24.059687 10.323906,24.253187 10.719299,24.329714 
	C10.384829,25.155479 10.050358,25.981245 9.377422,26.505421 
z"/>
<path fill="#060606" opacity="1.000000" stroke="none" 
	d="
M53.131954,27.614967 
	C52.862957,27.360622 52.927689,27.485363 52.916405,27.182781 
	C52.712360,26.484104 52.519596,26.088007 52.513565,25.499702 
	C52.824429,25.179010 52.948559,25.050528 53.072693,24.922045 
	C53.182114,25.904467 53.291531,26.886889 53.131954,27.614967 
z"/>
<path fill="#D7D7D7" opacity="1.000000" stroke="none" 
	d="
M9.037855,30.762175 
	C9.056480,30.352983 9.123594,30.416937 9.148497,30.369526 
	C9.443003,31.264524 9.712605,32.206936 9.982208,33.149345 
	C9.748858,33.195934 9.515508,33.242523 9.282157,33.289112 
	C9.194514,32.583199 9.106872,31.877281 9.037855,30.762175 
z"/>
<path fill="#060606" opacity="1.000000" stroke="none" 
	d="
M50.894249,23.117092 
	C51.686611,23.398355 52.292652,23.877069 52.985691,24.638916 
	C52.948559,25.050528 52.824429,25.179010 52.300461,25.354683 
	C51.612343,25.222248 51.324066,25.042622 50.999809,24.632561 
	C50.760719,24.166536 50.551804,23.936211 50.337093,23.711145 
	C50.460705,23.578943 50.584316,23.446741 50.894249,23.117092 
z"/>
<path fill="#DADADA" opacity="1.000000" stroke="none" 
	d="
M53.432533,33.329262 
	C53.245361,33.583656 52.899544,33.633656 52.553726,33.683651 
	C52.793777,33.497387 53.033829,33.311123 53.432533,33.329262 
z"/>
<path fill="#DADADA" opacity="1.000000" stroke="none" 
	d="
M46.363869,40.843086 
	C46.226406,40.406391 46.372047,39.865654 46.778183,39.194374 
	C46.908108,39.622234 46.777534,40.180641 46.363869,40.843086 
z"/>
<path fill="#DADADA" opacity="1.000000" stroke="none" 
	d="
M49.988045,23.584774 
	C50.551804,23.936211 50.760719,24.166536 50.990883,25.010225 
	C50.999790,26.121624 50.981644,26.624922 50.963497,27.128218 
	C45.023693,22.811762 40.949306,23.493193 34.385265,30.013796 
	C33.860168,29.860830 33.640224,29.543919 33.161175,29.090828 
	C37.898449,22.732048 42.910034,21.086292 49.988045,23.584774 
z"/>
<path fill="#FFFFFF" opacity="1.000000" stroke="none" 
	d="
M51.195446,27.524675 
	C50.981644,26.624922 50.999790,26.121624 51.026859,25.240662 
	C51.324066,25.042622 51.612343,25.222248 52.113728,25.546892 
	C52.519596,26.088007 52.712360,26.484104 52.984100,27.201626 
	C52.517849,27.655745 51.972622,27.788439 51.195446,27.524675 
z"/>
</svg>