<?xml version="1.0" encoding="UTF-8"?>
<svg version="1.1" xmlns="http://www.w3.org/2000/svg" width="60" height="60">
<path d="M0 0 C0.99 0.33 1.98 0.66 3 1 C3.6875 3.0625 3.6875 3.0625 4 5 C5.03125 5.0825 6.0625 5.165 7.125 5.25 C12.85206051 6.35846332 16.34566474 8.70905249 19.6875 13.4375 C25.51149948 23.62010554 25 34.44660481 25 46 C14.11 46 3.22 46 -8 46 C-9.15257677 42.54226969 -8.63876748 41.27491565 -7.1640625 38.04296875 C-5.28332757 34.74221584 -2.92043998 31.85606673 -0.5234375 28.91796875 C1.04922789 27.07330948 1.04922789 27.07330948 2 25 C0.37380152 26.29015746 -1.25091983 27.58217697 -2.875 28.875 C-3.77992187 29.59429687 -4.68484375 30.31359375 -5.6171875 31.0546875 C-8.00265176 32.93560474 -8.00265176 32.93560474 -10 35 C-11.875 35.046875 -11.875 35.046875 -14 34.75 C-14.70125 34.66234375 -15.4025 34.5746875 -16.125 34.484375 C-18 34 -18 34 -20 32 C-21.28242656 28.10629764 -21.11691643 25.71479556 -19.41796875 22.08984375 C-18.69061622 20.69718147 -17.94659461 19.31311816 -17.1875 17.9375 C-16.45018285 16.55165258 -15.71446518 15.16495281 -14.98046875 13.77734375 C-14.63338867 13.12709229 -14.28630859 12.47684082 -13.92871094 11.80688477 C-12.13543086 8.31790846 -10.84975127 4.82388069 -10 1 C-8.35 1.33 -6.7 1.66 -5 2 C-5 2.66 -5 3.32 -5 4 C-4.236875 3.319375 -3.47375 2.63875 -2.6875 1.9375 C-1.800625 1.298125 -0.91375 0.65875 0 0 Z " fill="#020202" transform="translate(28,7)"/>
<path d="M0 0 C5.86354729 0.82599536 9.19003306 3.57629361 13 8 C17.10370768 15.53909726 18.1611302 22.82271584 18.0625 31.3125 C18.05798828 32.05306641 18.05347656 32.79363281 18.04882812 33.55664062 C18.03712175 35.37112899 18.01918898 37.18557534 18 39 C17.01 39 16.02 39 15 39 C14.97421875 37.82824219 14.9484375 36.65648437 14.921875 35.44921875 C14.4709311 20.24465495 14.4709311 20.24465495 7.5625 7 C5.03362702 4.94239784 5.03362702 4.94239784 2.1875 3.3125 C1.465625 2.879375 0.74375 2.44625 0 2 C0 1.34 0 0.68 0 0 Z " fill="#E4E4E4" transform="translate(33,13)"/>
<path d="M0 0 C0.66 0 1.32 0 2 0 C3.59412284 3.18824568 3.10174735 6.62896662 3.0625 10.125 C3.05798828 10.87910156 3.05347656 11.63320313 3.04882812 12.41015625 C3.03703499 14.27347127 3.01909942 16.13674555 3 18 C2.01 18 1.02 18 0 18 C0 12.06 0 6.12 0 0 Z " fill="#EDEDED" transform="translate(48,34)"/>
<path d="M0 0 C6.7661001 6.0143112 9.3246181 12.08060046 9.921875 21.09375 C9.96054687 22.03734375 9.96054687 22.03734375 10 23 C7.58025996 20.58025996 7.39193189 19.0523185 6.625 15.75 C5.40629108 10.99330446 3.87126236 7.92405856 1 4 C0.25 1.625 0.25 1.625 0 0 Z " fill="#0D0D0D" transform="translate(42,15)"/>
<path d="M0 0 C0.99 0 1.98 0 3 0 C3.33 2.31 3.66 4.62 4 7 C3.01 7 2.02 7 1 7 C0.67 4.69 0.34 2.38 0 0 Z " fill="#DADADA" transform="translate(46,27)"/>
<path d="M0 0 C0.66 0 1.32 0 2 0 C1.67 1.65 1.34 3.3 1 5 C0.01 5.33 -0.98 5.66 -2 6 C-1.125 1.125 -1.125 1.125 0 0 Z " fill="#C0C0C0" transform="translate(20,17)"/>
</svg>
