<?xml version="1.0" encoding="UTF-8"?>
<svg version="1.1" xmlns="http://www.w3.org/2000/svg" width="60" height="60">
<path d="M0 0 C2.22456532 3.33684797 2.96914324 6.13428716 4 10 C4.4125 11.175625 4.825 12.35125 5.25 13.5625 C6.10348747 17.47431759 5.58784524 19.3832414 4 23 C5.1446875 24.0209375 5.1446875 24.0209375 6.3125 25.0625 C11.72301549 30.97631926 12 34.89129931 12 43 C0.78 43 -10.44 43 -22 43 C-19.76470588 29.58823529 -19.76470588 29.58823529 -16 25 C-13.58541542 21.37812314 -14.250938 20.09106367 -14.90234375 15.98046875 C-15.04791222 13.02834024 -13.60610471 11.40915706 -12 9 C-11.7834375 7.205625 -11.7834375 7.205625 -11.5625 5.375 C-11 2 -11 2 -9.375 0 C-5.92336696 -1.45331917 -3.57190516 -0.92604949 0 0 Z " fill="#000000" transform="translate(36,10)"/>
</svg>
